<svg width="35" height="35" viewBox="0 0 35 35" fill="none" xmlns="http://www.w3.org/2000/svg">
<path d="M17.5 17.5C15.8958 17.5 14.5226 16.9288 13.3802 15.7864C12.2379 14.6441 11.6667 13.2708 11.6667 11.6666C11.6667 10.0625 12.2379 8.68922 13.3802 7.54685C14.5226 6.40449 15.8958 5.83331 17.5 5.83331C19.1042 5.83331 20.4774 6.40449 21.6198 7.54685C22.7622 8.68922 23.3333 10.0625 23.3333 11.6666C23.3333 13.2708 22.7622 14.6441 21.6198 15.7864C20.4774 16.9288 19.1042 17.5 17.5 17.5ZM5.83334 29.1666V25.0833C5.83334 24.2569 6.04602 23.4974 6.47136 22.8047C6.89671 22.112 7.46182 21.5833 8.16668 21.2187C9.67362 20.4653 11.2049 19.9002 12.7604 19.5234C14.316 19.1467 15.8958 18.9583 17.5 18.9583C19.1042 18.9583 20.684 19.1467 22.2396 19.5234C23.7952 19.9002 25.3264 20.4653 26.8333 21.2187C27.5382 21.5833 28.1033 22.112 28.5287 22.8047C28.954 23.4974 29.1667 24.2569 29.1667 25.0833V29.1666H5.83334ZM8.75001 26.25H26.25V25.0833C26.25 24.816 26.1832 24.5729 26.0495 24.3541C25.9158 24.1354 25.7396 23.9653 25.5208 23.8437C24.2083 23.1875 22.8837 22.6953 21.5469 22.3672C20.2101 22.039 18.8611 21.875 17.5 21.875C16.1389 21.875 14.7899 22.039 13.4531 22.3672C12.1163 22.6953 10.7917 23.1875 9.47918 23.8437C9.26043 23.9653 9.08421 24.1354 8.95053 24.3541C8.81685 24.5729 8.75001 24.816 8.75001 25.0833V26.25ZM17.5 14.5833C18.3021 14.5833 18.9887 14.2977 19.5599 13.7265C20.1311 13.1554 20.4167 12.4687 20.4167 11.6666C20.4167 10.8646 20.1311 10.1779 19.5599 9.60675C18.9887 9.03557 18.3021 8.74998 17.5 8.74998C16.6979 8.74998 16.0113 9.03557 15.4401 9.60675C14.8689 10.1779 14.5833 10.8646 14.5833 11.6666C14.5833 12.4687 14.8689 13.1554 15.4401 13.7265C16.0113 14.2977 16.6979 14.5833 17.5 14.5833Z" fill="#0F4980"/>
</svg>
