<svg width="25" height="25" viewBox="0 0 25 25" fill="none" xmlns="http://www.w3.org/2000/svg">
<path d="M6.43966 19.5704V20.5805C6.43966 20.8666 6.34286 21.1065 6.14927 21.3001C5.95567 21.4937 5.71578 21.5905 5.4296 21.5905H4.41954C4.13336 21.5905 3.89347 21.4937 3.69988 21.3001C3.50628 21.1065 3.40948 20.8666 3.40948 20.5805V12.5L5.53061 6.43965C5.63161 6.13664 5.81258 5.89254 6.07351 5.70736C6.33444 5.52218 6.62483 5.4296 6.94469 5.4296H18.0553C18.3752 5.4296 18.6656 5.52218 18.9265 5.70736C19.1874 5.89254 19.3684 6.13664 19.4694 6.43965L21.5905 12.5V20.5805C21.5905 20.8666 21.4937 21.1065 21.3001 21.3001C21.1065 21.4937 20.8666 21.5905 20.5805 21.5905H19.5704C19.2842 21.5905 19.0443 21.4937 18.8507 21.3001C18.6571 21.1065 18.5603 20.8666 18.5603 20.5805V19.5704H6.43966ZM6.23765 10.4799H18.7624L17.7018 7.44971H7.29821L6.23765 10.4799ZM7.95474 16.5402C8.3756 16.5402 8.73333 16.3929 9.02793 16.0983C9.32253 15.8037 9.46983 15.446 9.46983 15.0251C9.46983 14.6043 9.32253 14.2466 9.02793 13.952C8.73333 13.6574 8.3756 13.5101 7.95474 13.5101C7.53389 13.5101 7.17616 13.6574 6.88156 13.952C6.58696 14.2466 6.43966 14.6043 6.43966 15.0251C6.43966 15.446 6.58696 15.8037 6.88156 16.0983C7.17616 16.3929 7.53389 16.5402 7.95474 16.5402ZM17.0453 16.5402C17.4661 16.5402 17.8238 16.3929 18.1184 16.0983C18.413 15.8037 18.5603 15.446 18.5603 15.0251C18.5603 14.6043 18.413 14.2466 18.1184 13.952C17.8238 13.6574 17.4661 13.5101 17.0453 13.5101C16.6244 13.5101 16.2667 13.6574 15.9721 13.952C15.6775 14.2466 15.5302 14.6043 15.5302 15.0251C15.5302 15.446 15.6775 15.8037 15.9721 16.0983C16.2667 16.3929 16.6244 16.5402 17.0453 16.5402ZM5.4296 17.5503H19.5704V12.5H5.4296V17.5503Z" fill="#0F4980"/>
</svg>
