<svg width="35" height="35" viewBox="0 0 35 35" fill="none" xmlns="http://www.w3.org/2000/svg">
<path d="M17.5 30.625L15.3854 28.7291C12.9306 26.5173 10.901 24.6094 9.29687 23.0052C7.69271 21.401 6.41666 19.9609 5.46875 18.6849C4.52083 17.4088 3.8585 16.2361 3.48177 15.1666C3.10503 14.0972 2.91666 13.0035 2.91666 11.8854C2.91666 9.60067 3.68229 7.69269 5.21354 6.16144C6.74479 4.63019 8.65277 3.86456 10.9375 3.86456C12.2014 3.86456 13.4045 4.13192 14.5469 4.66665C15.6892 5.20137 16.6736 5.95484 17.5 6.92706C18.3264 5.95484 19.3108 5.20137 20.4531 4.66665C21.5955 4.13192 22.7986 3.86456 24.0625 3.86456C26.3472 3.86456 28.2552 4.63019 29.7865 6.16144C31.3177 7.69269 32.0833 9.60067 32.0833 11.8854C32.0833 13.0035 31.895 14.0972 31.5182 15.1666C31.1415 16.2361 30.4792 17.4088 29.5312 18.6849C28.5833 19.9609 27.3073 21.401 25.7031 23.0052C24.099 24.6094 22.0694 26.5173 19.6146 28.7291L17.5 30.625ZM17.5 26.6875C19.8333 24.5972 21.7535 22.8047 23.2604 21.3099C24.7674 19.8151 25.9583 18.5147 26.8333 17.4088C27.7083 16.3029 28.316 15.3186 28.6562 14.4557C28.9965 13.5929 29.1667 12.7361 29.1667 11.8854C29.1667 10.4271 28.6806 9.21178 27.7083 8.23956C26.7361 7.26734 25.5208 6.78123 24.0625 6.78123C22.9201 6.78123 21.8628 7.10328 20.8906 7.74738C19.9184 8.39147 19.25 9.21178 18.8854 10.2083H16.1146C15.75 9.21178 15.0816 8.39147 14.1094 7.74738C13.1371 7.10328 12.0799 6.78123 10.9375 6.78123C9.47916 6.78123 8.26389 7.26734 7.29166 8.23956C6.31944 9.21178 5.83333 10.4271 5.83333 11.8854C5.83333 12.7361 6.00347 13.5929 6.34375 14.4557C6.68403 15.3186 7.29166 16.3029 8.16666 17.4088C9.04166 18.5147 10.2326 19.8151 11.7396 21.3099C13.2465 22.8047 15.1667 24.5972 17.5 26.6875Z" fill="#0F4980"/>
</svg>
