<svg width="25" height="25" viewBox="0 0 25 25" fill="none" xmlns="http://www.w3.org/2000/svg">
<path d="M4.47003 11.4899H7.3487C7.24769 10.8502 7.0541 10.2526 6.76791 9.69708C6.48173 9.14155 6.11979 8.64494 5.6821 8.20724C5.37908 8.69544 5.12236 9.21309 4.91193 9.76021C4.7015 10.3073 4.5542 10.8839 4.47003 11.4899ZM17.6513 11.4899H20.5299C20.4458 10.8839 20.2985 10.3073 20.088 9.76021C19.8776 9.21309 19.6209 8.69544 19.3179 8.20724C18.8802 8.64494 18.5182 9.14155 18.2321 9.69708C17.9459 10.2526 17.7523 10.8502 17.6513 11.4899ZM5.6821 16.7927C6.11979 16.355 6.48173 15.8584 6.76791 15.3029C7.0541 14.7474 7.24769 14.1497 7.3487 13.51H4.47003C4.5542 14.1161 4.7015 14.6927 4.91193 15.2398C5.12236 15.7869 5.37908 16.3045 5.6821 16.7927ZM19.3179 16.7927C19.6209 16.3045 19.8776 15.7869 20.088 15.2398C20.2985 14.6927 20.4458 14.1161 20.5299 13.51H17.6513C17.7523 14.1497 17.9459 14.7474 18.2321 15.3029C18.5182 15.8584 18.8802 16.355 19.3179 16.7927ZM9.41931 11.4899H11.4899V4.47003C10.5977 4.60471 9.76863 4.85301 9.00267 5.21495C8.2367 5.57689 7.55071 6.05246 6.94467 6.64166C7.60121 7.28136 8.14412 8.00944 8.57339 8.8259C9.00267 9.64237 9.28464 10.5304 9.41931 11.4899ZM13.51 11.4899H15.5807C15.7153 10.5304 15.9973 9.64237 16.4266 8.8259C16.8559 8.00944 17.3988 7.28136 18.0553 6.64166C17.4493 6.05246 16.7633 5.57689 15.9973 5.21495C15.2314 4.85301 14.4023 4.60471 13.51 4.47003V11.4899ZM11.4899 20.5299V13.51H9.41931C9.28464 14.4696 9.00267 15.3576 8.57339 16.1741C8.14412 16.9905 7.60121 17.7186 6.94467 18.3583C7.55071 18.9475 8.2367 19.4231 9.00267 19.785C9.76863 20.147 10.5977 20.3953 11.4899 20.5299ZM13.51 20.5299C14.4023 20.3953 15.2314 20.147 15.9973 19.785C16.7633 19.4231 17.4493 18.9475 18.0553 18.3583C17.3988 17.7186 16.8559 16.9905 16.4266 16.1741C15.9973 15.3576 15.7153 14.4696 15.5807 13.51H13.51V20.5299ZM12.5 22.6006C11.1027 22.6006 9.78967 22.3354 8.56076 21.8051C7.33186 21.2749 6.26288 20.5552 5.35383 19.6461C4.44478 18.7371 3.72511 17.6681 3.19483 16.4392C2.66455 15.2103 2.39941 13.8972 2.39941 12.5C2.39941 11.1027 2.66455 9.78967 3.19483 8.56076C3.72511 7.33186 4.44478 6.26288 5.35383 5.35383C6.26288 4.44478 7.33186 3.72511 8.56076 3.19483C9.78967 2.66455 11.1027 2.39941 12.5 2.39941C13.8972 2.39941 15.2103 2.66455 16.4392 3.19483C17.6681 3.72511 18.7371 4.44478 19.6461 5.35383C20.5552 6.26288 21.2749 7.33186 21.8051 8.56076C22.3354 9.78967 22.6006 11.1027 22.6006 12.5C22.6006 13.8972 22.3354 15.2103 21.8051 16.4392C21.2749 17.6681 20.5552 18.7371 19.6461 19.6461C18.7371 20.5552 17.6681 21.2749 16.4392 21.8051C15.2103 22.3354 13.8972 22.6006 12.5 22.6006Z" fill="#0F4980"/>
</svg>
