<svg width="35" height="35" viewBox="0 0 35 35" fill="none" xmlns="http://www.w3.org/2000/svg">
<path d="M8.75 20.4167H26.25V17.5H8.75V20.4167ZM8.75 16.0417H26.25V13.125H8.75V16.0417ZM8.75 11.6667H26.25V8.75002H8.75V11.6667ZM32.0833 32.0834L26.25 26.25H5.83334C5.03126 26.25 4.34462 25.9644 3.77344 25.3932C3.20226 24.8221 2.91667 24.1354 2.91667 23.3334V5.83335C2.91667 5.03127 3.20226 4.34464 3.77344 3.77346C4.34462 3.20228 5.03126 2.91669 5.83334 2.91669H29.1667C29.9688 2.91669 30.6554 3.20228 31.2266 3.77346C31.7977 4.34464 32.0833 5.03127 32.0833 5.83335V32.0834ZM5.83334 23.3334H27.4896L29.1667 24.974V5.83335H5.83334V23.3334Z" fill="#0F4980"/>
</svg>
