<svg width="25" height="25" viewBox="0 0 25 25" fill="none" xmlns="http://www.w3.org/2000/svg">
<path d="M6.43964 14.5201C5.88411 14.5201 5.40854 14.3223 5.01293 13.9267C4.61733 13.5311 4.41953 13.0555 4.41953 12.5C4.41953 11.9445 4.61733 11.4689 5.01293 11.0733C5.40854 10.6777 5.88411 10.4799 6.43964 10.4799C6.99517 10.4799 7.47074 10.6777 7.86635 11.0733C8.26195 11.4689 8.45975 11.9445 8.45975 12.5C8.45975 13.0555 8.26195 13.5311 7.86635 13.9267C7.47074 14.3223 6.99517 14.5201 6.43964 14.5201ZM12.5 14.5201C11.9445 14.5201 11.4689 14.3223 11.0733 13.9267C10.6777 13.5311 10.4799 13.0555 10.4799 12.5C10.4799 11.9445 10.6777 11.4689 11.0733 11.0733C11.4689 10.6777 11.9445 10.4799 12.5 10.4799C13.0555 10.4799 13.5311 10.6777 13.9267 11.0733C14.3223 11.4689 14.5201 11.9445 14.5201 12.5C14.5201 13.0555 14.3223 13.5311 13.9267 13.9267C13.5311 14.3223 13.0555 14.5201 12.5 14.5201ZM18.5603 14.5201C18.0048 14.5201 17.5292 14.3223 17.1336 13.9267C16.738 13.5311 16.5402 13.0555 16.5402 12.5C16.5402 11.9445 16.738 11.4689 17.1336 11.0733C17.5292 10.6777 18.0048 10.4799 18.5603 10.4799C19.1159 10.4799 19.5914 10.6777 19.987 11.0733C20.3826 11.4689 20.5804 11.9445 20.5804 12.5C20.5804 13.0555 20.3826 13.5311 19.987 13.9267C19.5914 14.3223 19.1159 14.5201 18.5603 14.5201Z" fill="#0F4980"/>
</svg>
