<svg width="25" height="25" viewBox="0 0 25 25" fill="none" xmlns="http://www.w3.org/2000/svg">
<path d="M7.44971 23.6106C6.89418 23.6106 6.41861 23.4128 6.023 23.0172C5.6274 22.6216 5.4296 22.146 5.4296 21.5905V3.40947C5.4296 2.85394 5.6274 2.37837 6.023 1.98277C6.41861 1.58716 6.89418 1.38936 7.44971 1.38936H17.5503C18.1058 1.38936 18.5814 1.58716 18.977 1.98277C19.3726 2.37837 19.5704 2.85394 19.5704 3.40947V6.54065C19.8734 6.65849 20.1175 6.84367 20.3027 7.09618C20.4879 7.3487 20.5805 7.63488 20.5805 7.95473V9.97485C20.5805 10.2947 20.4879 10.5809 20.3027 10.8334C20.1175 11.0859 19.8734 11.2711 19.5704 11.3889V21.5905C19.5704 22.146 19.3726 22.6216 18.977 23.0172C18.5814 23.4128 18.1058 23.6106 17.5503 23.6106H7.44971ZM7.44971 21.5905H17.5503V3.40947H7.44971V21.5905ZM10.4799 20.5805H14.5201C14.8063 20.5805 15.0462 20.4837 15.2398 20.2901C15.4334 20.0965 15.5302 19.8566 15.5302 19.5704C15.5302 19.2842 15.4334 19.0443 15.2398 18.8507C15.0462 18.6571 14.8063 18.5603 14.5201 18.5603H10.4799C10.1937 18.5603 9.95381 18.6571 9.76022 18.8507C9.56662 19.0443 9.46983 19.2842 9.46983 19.5704C9.46983 19.8566 9.56662 20.0965 9.76022 20.2901C9.95381 20.4837 10.1937 20.5805 10.4799 20.5805Z" fill="#0F4980"/>
</svg>
